<?xml version="1.0" standalone="no"?>
<!DOCTYPE svg PUBLIC "-//W3C//DTD SVG 20010904//EN"
 "http://www.w3.org/TR/2001/REC-SVG-20010904/DTD/svg10.dtd">
<svg version="1.0" xmlns="http://www.w3.org/2000/svg"
 width="120.000000pt" height="120.000000pt" viewBox="0 0 120.000000 120.000000"
 preserveAspectRatio="xMidYMid meet">
<metadata>
Created by potrace 1.11, written by Peter Selinger 2001-2013
</metadata>
<g transform="translate(0.000000,120.000000) scale(0.100000,-0.100000)"
fill="#000000" stroke="none">
<path d="M0 600 l0 -600 600 0 600 0 0 600 0 600 -600 0 -600 0 0 -600z m695
281 c148 -69 182 -266 64 -378 -54 -51 -95 -63 -214 -63 l-105 0 0 -70 0 -70
-70 0 -70 0 0 230 0 229 68 3 67 3 3 68 3 67 107 0 c83 0 116 -5 147 -19z"/>
<path d="M440 670 l0 -90 96 0 c92 0 97 1 125 29 37 37 38 79 3 120 -26 31
-26 31 -125 31 l-99 0 0 -90z"/>
</g>
</svg>
